<?xml version="1.0" encoding="utf-8"?>
<!-- Generator: Adobe Illustrator 16.0.0, SVG Export Plug-In . SVG Version: 6.00 Build 0)  -->
<!DOCTYPE svg PUBLIC "-//W3C//DTD SVG 1.1//EN" "http://www.w3.org/Graphics/SVG/1.1/DTD/svg11.dtd">
<svg version="1.1" id="Layer_1" xmlns="http://www.w3.org/2000/svg" xmlns:xlink="http://www.w3.org/1999/xlink" x="0px" y="0px"
	 width="184.333px" height="48px" viewBox="0 0 184.333 48" enable-background="new 0 0 184.333 48" xml:space="preserve">
<g>
	<path fill="#007BFF" d="M16.408,31.531c-0.306,0-0.428,0.123-0.551,0.49l-3.306,8.388c-0.612,1.531-0.918,3-0.918,3.735
		c0,1.102,0.551,1.898,2.449,1.898H15c0.734,0,0.918,0.123,0.918,0.49c0,0.49-0.368,0.612-1.041,0.612
		c-1.959,0-4.592-0.184-6.49-0.184c-0.674,0-4.041,0.184-7.225,0.184C0.367,47.143,0,47.021,0,46.531c0-0.367,0.245-0.49,0.734-0.49
		c0.551,0,1.408-0.061,1.898-0.122c2.816-0.368,3.979-2.449,5.204-5.511L23.204,2.449C23.939,0.673,24.306,0,24.918,0
		c0.551,0,0.918,0.551,1.53,1.959c1.47,3.368,11.266,27.857,15.184,37.164c2.327,5.51,4.102,6.367,5.388,6.673
		c0.918,0.184,1.836,0.245,2.571,0.245c0.49,0,0.796,0.062,0.796,0.49c0,0.49-0.551,0.612-2.816,0.612
		c-2.204,0-6.674,0-11.572-0.123c-1.102-0.061-1.836-0.061-1.836-0.49c0-0.367,0.245-0.49,0.857-0.551
		c0.429-0.123,0.857-0.674,0.551-1.409l-4.898-12.612c-0.123-0.306-0.306-0.429-0.612-0.429H16.408z M28.898,28.47
		c0.306,0,0.367-0.184,0.306-0.368l-5.51-15.061c-0.061-0.245-0.123-0.551-0.306-0.551s-0.306,0.306-0.367,0.551l-5.633,15
		c-0.061,0.245,0,0.429,0.245,0.429H28.898z"/>
	<path fill="#007BFF" d="M56.812,18.612c0-9.306,0-11.02-0.123-12.979c-0.123-2.082-0.735-3.123-2.082-3.429
		c-0.673-0.184-1.469-0.245-2.204-0.245c-0.612,0-0.979-0.122-0.979-0.612c0-0.368,0.49-0.49,1.47-0.49
		c2.327,0,6.183,0.184,7.959,0.184c1.531,0,5.143-0.184,7.469-0.184c0.796,0,1.286,0.122,1.286,0.49c0,0.49-0.368,0.612-0.98,0.612
		s-1.102,0.062-1.836,0.184c-1.653,0.306-2.143,1.347-2.265,3.49c-0.123,1.959-0.123,3.673-0.123,12.979v10.775
		c0,5.939,0,10.775,0.245,13.408c0.184,1.653,0.612,2.755,2.449,3c0.857,0.123,2.205,0.245,3.123,0.245
		c0.673,0,0.979,0.184,0.979,0.49c0,0.429-0.49,0.612-1.163,0.612c-4.041,0-7.898-0.184-9.551-0.184
		c-1.409,0-5.265,0.184-7.714,0.184c-0.796,0-1.225-0.184-1.225-0.612c0-0.306,0.245-0.49,0.979-0.49
		c0.918,0,1.653-0.122,2.204-0.245c1.225-0.245,1.592-1.286,1.776-3.061c0.306-2.572,0.306-7.408,0.306-13.347V18.612z"/>
	<path fill="#007BFF" d="M77.197,24c0-10.469,6.918-24,25.285-24c15.245,0,24.735,8.878,24.735,22.898
		c0,14.02-9.796,25.102-25.347,25.102C84.299,48,77.197,34.837,77.197,24z M118.646,25.163c0-13.714-7.898-22.224-17.939-22.224
		c-7.041,0-15.062,3.918-15.062,19.164c0,12.734,7.041,22.836,18.796,22.836C108.728,44.939,118.646,42.857,118.646,25.163z"/>
	<path fill="#007BFF" d="M143.436,38.816c0.122,4.775,0.918,6.367,2.143,6.796c1.041,0.368,2.204,0.429,3.184,0.429
		c0.673,0,1.041,0.123,1.041,0.49c0,0.49-0.551,0.612-1.408,0.612c-3.979,0-6.429-0.184-7.592-0.184
		c-0.551,0-3.428,0.184-6.612,0.184c-0.796,0-1.347-0.061-1.347-0.612c0-0.367,0.368-0.49,0.98-0.49
		c0.796,0,1.897-0.061,2.755-0.306c1.592-0.49,1.837-2.265,1.898-7.592l0.551-36.062c0-1.224,0.184-2.082,0.796-2.082
		c0.674,0,1.225,0.796,2.265,1.898c0.735,0.796,10.041,10.592,18.98,19.469c4.163,4.164,12.429,12.98,13.469,13.959h0.306
		l-0.612-27.49c-0.061-3.734-0.612-4.898-2.082-5.51c-0.918-0.368-2.388-0.368-3.245-0.368c-0.735,0-0.979-0.184-0.979-0.551
		c0-0.49,0.673-0.551,1.591-0.551c3.184,0,6.123,0.184,7.409,0.184c0.673,0,3-0.184,6-0.184c0.796,0,1.408,0.061,1.408,0.551
		c0,0.367-0.367,0.551-1.102,0.551c-0.612,0-1.102,0-1.836,0.184c-1.714,0.49-2.205,1.775-2.266,5.204l-0.673,38.633
		c0,1.347-0.245,1.898-0.796,1.898c-0.673,0-1.408-0.673-2.082-1.347c-3.856-3.673-11.693-11.694-18.061-18
		c-6.674-6.612-13.47-14.082-14.572-15.245h-0.184L143.436,38.816z"/>
</g>
<g>
	<path fill="#007BFF" d="M107.989,14.164c-2.17,0-3.936,1.766-3.936,3.936c0,2.17,1.766,3.936,3.936,3.936
		c2.17,0,3.936-1.766,3.936-3.936C111.925,15.929,110.159,14.164,107.989,14.164z M107.989,21.16c-1.688,0-3.061-1.373-3.061-3.061
		c0-1.688,1.373-3.061,3.061-3.061c0.581,0,1.119,0.172,1.583,0.454c-0.886,0.085-1.583,0.825-1.583,1.732
		c0,0.399,0.14,0.763,0.365,1.058c0.146-0.107,0.315-0.183,0.51-0.183c0.482,0,0.875,0.392,0.875,0.875
		c0.507,0,0.96-0.22,1.28-0.566C110.862,19.949,109.571,21.16,107.989,21.16z"/>
	<g>
		<path fill="#007BFF" d="M103.233,10.453c0,0,0.201-0.085,0.552-0.235c0.187-0.07,0.363-0.175,0.659-0.26
			c0.294-0.081,0.626-0.171,0.988-0.271c0.359-0.086,0.742-0.098,1.146-0.15c0.402-0.067,0.834,0.009,1.271,0.011l0.374,0.021
			l0.307,0.062c0.207,0.042,0.415,0.084,0.625,0.126c0.417,0.074,0.893,0.29,1.328,0.434c0.426,0.188,0.818,0.425,1.211,0.638
			c0.356,0.276,0.725,0.517,1.036,0.802c0.292,0.309,0.605,0.571,0.836,0.879c0.225,0.313,0.458,0.59,0.63,0.874
			c0.158,0.292,0.302,0.56,0.43,0.796c0.129,0.234,0.183,0.468,0.256,0.644c0.13,0.358,0.205,0.563,0.205,0.563
			s-0.1-0.194-0.274-0.533c-0.095-0.165-0.173-0.383-0.329-0.597c-0.152-0.213-0.324-0.454-0.512-0.716
			c-0.2-0.251-0.458-0.489-0.704-0.756c-0.252-0.262-0.583-0.472-0.884-0.723c-0.321-0.228-0.691-0.405-1.04-0.615
			c-0.383-0.146-0.766-0.318-1.153-0.433c-0.406-0.071-0.743-0.207-1.179-0.23c-0.214-0.016-0.426-0.032-0.636-0.048l-0.313-0.023
			c-0.01,0.016-0.168,0.019-0.243,0.028c-0.376,0.05-0.743,0.021-1.075,0.126c-0.329,0.089-0.658,0.137-0.922,0.24
			c-0.258,0.104-0.495,0.2-0.705,0.285c-0.208,0.08-0.424,0.235-0.584,0.319c-0.33,0.192-0.518,0.302-0.518,0.302
			c-0.418,0.244-0.955,0.102-1.198-0.316c-0.244-0.418-0.102-0.955,0.316-1.198C103.166,10.484,103.201,10.466,103.233,10.453z"/>
	</g>
	<g>
		<path fill="#007BFF" d="M97.25,11.863c0,0-0.167-0.082-0.458-0.226c-0.14-0.062-0.336-0.182-0.512-0.235
			c-0.177-0.059-0.377-0.124-0.596-0.196c-0.224-0.071-0.502-0.092-0.782-0.148c-0.283-0.07-0.588-0.024-0.906-0.045
			c-0.06-0.005-0.203,0.004-0.198-0.012l-0.264,0.039c-0.177,0.025-0.356,0.052-0.537,0.078c-0.369,0.046-0.635,0.178-0.973,0.26
			c-0.317,0.119-0.63,0.286-0.944,0.431c-0.281,0.197-0.583,0.368-0.84,0.579c-0.239,0.229-0.506,0.425-0.704,0.661
			c-0.192,0.24-0.396,0.457-0.551,0.68c-0.144,0.233-0.274,0.447-0.391,0.637c-0.119,0.19-0.173,0.379-0.244,0.525
			c-0.128,0.298-0.201,0.469-0.201,0.469s0.047-0.179,0.13-0.494c0.048-0.155,0.076-0.357,0.167-0.566
			c0.09-0.211,0.192-0.45,0.303-0.71c0.125-0.254,0.3-0.508,0.468-0.792c0.173-0.28,0.418-0.528,0.644-0.813
			c0.243-0.268,0.538-0.501,0.821-0.765c0.319-0.212,0.634-0.445,0.985-0.639c0.36-0.157,0.758-0.38,1.105-0.475
			c0.175-0.053,0.349-0.105,0.52-0.156l0.255-0.077l0.325-0.048c0.374-0.036,0.74-0.134,1.09-0.108
			c0.352,0.014,0.681-0.005,0.998,0.041c0.321,0.058,0.616,0.111,0.876,0.159c0.263,0.052,0.417,0.125,0.582,0.17
			c0.309,0.099,0.486,0.156,0.486,0.156c0.461,0.148,0.715,0.642,0.567,1.103c-0.148,0.461-0.642,0.715-1.103,0.567
			C97.33,11.898,97.287,11.88,97.25,11.863z"/>
	</g>
	<path fill="#007BFF" d="M94.871,14.164c-2.17,0-3.936,1.766-3.936,3.936c0,2.17,1.766,3.936,3.936,3.936
		c2.17,0,3.936-1.766,3.936-3.936C98.807,15.929,97.041,14.164,94.871,14.164z M94.871,21.16c-1.688,0-3.061-1.373-3.061-3.061
		c0-1.688,1.373-3.061,3.061-3.061c0.581,0,1.119,0.172,1.583,0.454c-0.886,0.085-1.583,0.825-1.583,1.732
		c0,0.399,0.14,0.763,0.365,1.058c0.146-0.107,0.315-0.183,0.51-0.183c0.482,0,0.875,0.392,0.875,0.875
		c0.507,0,0.96-0.22,1.28-0.566C97.744,19.949,96.453,21.16,94.871,21.16z"/>
</g>
<path fill="#007BFF" d="M113.674,24.658c0-0.155-0.083-0.298-0.216-0.377c-0.134-0.079-0.299-0.081-0.435-0.005
	c-0.046,0.025-4.688,2.568-10.719,2.568c-6.031,0-10.673-2.543-10.719-2.568c-0.135-0.075-0.3-0.074-0.435,0.005
	c-0.133,0.079-0.101,0.222-0.101,0.377c0,4.928,5.042,11.37,11.283,11.37C108.55,36.028,113.674,29.419,113.674,24.658z
	 M95.972,32.781c1.519-1.475,3.683-2.415,5.189-1.182c0.413,0.338,0.754,0.808,1.014,1.395c0.072,0.164,0.232,0.261,0.4,0.261
	c0.059,0,0.12-0.012,0.177-0.038c0.221-0.098,0.321-0.356,0.223-0.577c-0.208-0.47-0.466-0.874-0.764-1.221
	c0.941-0.389,2.382-0.532,3.568,0.048c0.852,0.417,1.406,1.146,1.683,2.14c-1.601,1-3.374,1.544-5.157,1.544
	C100.065,35.153,97.836,34.308,95.972,32.781z"/>
</svg>
